<?xml version="1.0" encoding="utf-8"?>
<!-- Generator: Adobe Illustrator 24.1.2, SVG Export Plug-In . SVG Version: 6.00 Build 0)  -->
<svg version="1.1" id="Layer_1" xmlns="http://www.w3.org/2000/svg" xmlns:xlink="http://www.w3.org/1999/xlink" x="0px" y="0px"
	 viewBox="0 0 106 121" style="enable-background:new 0 0 106 121;" xml:space="preserve">
<style type="text/css">
	.st0{fill-rule:evenodd;clip-rule:evenodd;fill:#FFFFFF;}
</style>
<g>
	<path class="st0" d="M80.5,61C87.4,61,93,66.6,93,73.5C93,80.4,87.4,86,80.5,86S68,80.4,68,73.5l0,0C68,66.6,73.6,61,80.5,61z"/>
	<path class="st0" d="M54,47c6.1,0,11,4.9,11,11s-4.9,11-11,11s-11-4.9-11-11S47.9,47,54,47L54,47z"/>
	<circle class="st0" cx="12" cy="92" r="9"/>
	<circle class="st0" cx="31" cy="109" r="9"/>
	<circle class="st0" cx="54.5" cy="102.5" r="4.5"/>
	<circle class="st0" cx="69" cy="94" r="5"/>
	<circle class="st0" cx="100" cy="89" r="5"/>
	<circle class="st0" cx="64" cy="111" r="9"/>
	<circle class="st0" cx="84" cy="104" r="10"/>
	<path class="st0" d="M15.5,41C21.9,41,27,46.1,27,52.5S21.9,64,15.5,64S4,58.9,4,52.5l0,0C4,46.1,9.1,41,15.5,41z"/>
	<path class="st0" d="M80.5,4C88,4,94,10,94,17.5S88,31,80.5,31S67,25,67,17.5l0,0C67,10,73,4,80.5,4z"/>
	<circle class="st0" cx="30" cy="13" r="11"/>
	<path class="st0" d="M51.5,7c3.6,0,6.5,2.9,6.5,6.5S55.1,20,51.5,20S45,17.1,45,13.5S47.9,7,51.5,7L51.5,7z"/>
	<path class="st0" d="M12.5,22c3.6,0,6.5,2.9,6.5,6.5S16.1,35,12.5,35S6,32.1,6,28.5S8.9,22,12.5,22L12.5,22z"/>
	<path class="st0" d="M30.5,24c3.6,0,6.5,2.9,6.5,6.5S34.1,37,30.5,37S24,34.1,24,30.5S26.9,24,30.5,24L30.5,24z"/>
	<path class="st0" d="M31.5,38c3,0,5.5,2.5,5.5,5.5S34.5,49,31.5,49S26,46.5,26,43.5l0,0C26,40.5,28.5,38,31.5,38z"/>
	<circle class="st0" cx="61.5" cy="20.5" r="4.5"/>
	<circle class="st0" cx="63.5" cy="42.5" r="4.5"/>
	<path class="st0" d="M73.5,42c4.1,0,7.5,3.4,7.5,7.5S77.6,57,73.5,57S66,53.6,66,49.5l0,0C66,45.4,69.4,42,73.5,42z"/>
	<circle class="st0" cx="67" cy="31" r="4"/>
	<circle class="st0" cx="57.5" cy="71.5" r="2.5"/>
	<circle class="st0" cx="72.5" cy="60.5" r="2.5"/>
	<circle class="st0" cx="95" cy="42" r="3"/>
	<circle class="st0" cx="78.5" cy="57.5" r="2.5"/>
	<circle class="st0" cx="63.5" cy="72.5" r="3.5"/>
	<circle class="st0" cx="36.5" cy="94.5" r="3.5"/>
	<circle class="st0" cx="100" cy="75" r="4"/>
	<circle class="st0" cx="6.5" cy="115.5" r="4.5"/>
	<path class="st0" d="M14.5,103c3,0,5.5,2.5,5.5,5.5s-2.5,5.5-5.5,5.5S9,111.5,9,108.5S11.5,103,14.5,103L14.5,103z"/>
	<circle class="st0" cx="26.5" cy="95.5" r="3.5"/>
	<circle class="st0" cx="22" cy="102" r="3"/>
	<circle class="st0" cx="5" cy="106" r="3"/>
	<circle class="st0" cx="14.5" cy="118.5" r="2.5"/>
	<circle class="st0" cx="20" cy="115" r="3"/>
	<circle class="st0" cx="20.5" cy="117.5" r="3.5"/>
	<circle class="st0" cx="25.5" cy="118.5" r="1.5"/>
	<circle class="st0" cx="16.5" cy="68.5" r="2.5"/>
	<circle class="st0" cx="28.5" cy="65.5" r="2.5"/>
	<circle class="st0" cx="23" cy="67" r="2"/>
	<path class="st0" d="M3.5,62C5.4,62,7,63.6,7,65.5S5.4,69,3.5,69S0,67.4,0,65.5S1.6,62,3.5,62L3.5,62z"/>
	<circle class="st0" cx="5" cy="41" r="4"/>
	<circle class="st0" cx="21" cy="75" r="5"/>
	<path class="st0" d="M8.5,69c3.6,0,6.5,2.9,6.5,6.5c0,3.6-2.9,6.5-6.5,6.5S2,79.1,2,75.5C2,71.9,4.9,69,8.5,69L8.5,69z"/>
	<circle class="st0" cx="33" cy="74" r="6"/>
	<circle class="st0" cx="30" cy="86" r="6"/>
	<circle class="st0" cx="44.5" cy="70.5" r="2.5"/>
	<circle class="st0" cx="85.5" cy="89.5" r="2.5"/>
	<circle class="st0" cx="25" cy="38" r="3"/>
	<circle class="st0" cx="5" cy="21" r="3"/>
	<circle class="st0" cx="18" cy="39" r="3"/>
	<circle class="st0" cx="39" cy="36" r="3"/>
	<circle class="st0" cx="40" cy="28" r="3"/>
	<circle class="st0" cx="19" cy="21" r="3"/>
	<circle class="st0" cx="60" cy="12" r="3"/>
	<circle class="st0" cx="52.5" cy="2.5" r="2.5"/>
	<circle class="st0" cx="66" cy="9" r="3"/>
	<path class="st0" d="M68.5,0C70.4,0,72,1.6,72,3.5S70.4,7,68.5,7S65,5.4,65,3.5l0,0C65,1.6,66.6,0,68.5,0z"/>
	<circle class="st0" cx="89" cy="31" r="3"/>
	<circle class="st0" cx="97" cy="21" r="3"/>
	<circle class="st0" cx="43" cy="18" r="3"/>
	<circle class="st0" cx="68" cy="38" r="3"/>
	<path class="st0" d="M83.5,49c1.9,0,3.5,1.6,3.5,3.5S85.4,56,83.5,56S80,54.4,80,52.5S81.6,49,83.5,49L83.5,49z"/>
	<circle class="st0" cx="96" cy="35" r="4"/>
	<circle class="st0" cx="98" cy="27" r="4"/>
	<circle class="st0" cx="85" cy="35" r="4"/>
	<circle class="st0" cx="6" cy="4" r="4"/>
	<circle class="st0" cx="14.5" cy="4.5" r="3.5"/>
	<circle class="st0" cx="45" cy="4" r="4"/>
	<path class="st0" d="M59.5,0C62,0,64,2,64,4.5S62,9,59.5,9S55,7,55,4.5S57,0,59.5,0L59.5,0z"/>
	<circle class="st0" cx="75" cy="37" r="5"/>
	<circle class="st0" cx="88" cy="46" r="5"/>
	<circle class="st0" cx="10" cy="14" r="6"/>
	<circle class="st0" cx="76.5" cy="89.5" r="2.5"/>
	<circle class="st0" cx="69.5" cy="86.5" r="2.5"/>
	<circle class="st0" cx="48.5" cy="107.5" r="2.5"/>
	<circle class="st0" cx="53.5" cy="111.5" r="2.5"/>
	<circle class="st0" cx="54.5" cy="118.5" r="2.5"/>
	<circle class="st0" cx="46.5" cy="102.5" r="2.5"/>
	<circle class="st0" cx="42" cy="118" r="2"/>
	<circle class="st0" cx="42" cy="100" r="2"/>
	<circle class="st0" cx="60" cy="98" r="2"/>
	<circle class="st0" cx="104" cy="82" r="2"/>
	<circle class="st0" cx="95" cy="82" r="2"/>
	<circle class="st0" cx="80" cy="116" r="2"/>
	<circle class="st0" cx="67" cy="100" r="2"/>
	<circle class="st0" cx="67" cy="81" r="2"/>
	<circle class="st0" cx="68" cy="63" r="2"/>
	<circle class="st0" cx="64" cy="26" r="2"/>
	<circle class="st0" cx="39" cy="24" r="2"/>
	<circle class="st0" cx="11" cy="38" r="2"/>
	<circle class="st0" cx="4" cy="33" r="2"/>
	<circle class="st0" cx="22" cy="26" r="2"/>
	<circle class="st0" cx="21" cy="2" r="2"/>
	<circle class="st0" cx="39" cy="2" r="2"/>
	<circle class="st0" cx="75" cy="3" r="2"/>
	<circle class="st0" cx="21" cy="33" r="2"/>
	<circle class="st0" cx="3" cy="25" r="2"/>
	<circle class="st0" cx="92" cy="28" r="2"/>
	<circle class="st0" cx="49" cy="98" r="2"/>
	<circle class="st0" cx="99" cy="101" r="3"/>
	<circle class="st0" cx="102.5" cy="96.5" r="2.5"/>
	<circle class="st0" cx="75" cy="117" r="3"/>
	<circle class="st0" cx="47.5" cy="115.5" r="3.5"/>
	<circle class="st0" cx="31.5" cy="51.5" r="2.5"/>
	<circle class="st0" cx="51.5" cy="44.5" r="2.5"/>
	<circle class="st0" cx="56" cy="44" r="2"/>
	<circle class="st0" cx="39.5" cy="63.5" r="4.5"/>
	<path class="st0" d="M44.5,41c2.5,0,4.5,2,4.5,4.5S47,50,44.5,50S40,48,40,45.5l0,0C40,43,42,41,44.5,41z"/>
	<path class="st0" d="M32.5,55c2.5,0,4.5,2,4.5,4.5S35,64,32.5,64S28,62,28,59.5S30,55,32.5,55L32.5,55z"/>
	<circle class="st0" cx="39.5" cy="51.5" r="4.5"/>
</g>
</svg>
